<svg width="120" height="24" viewBox="0 0 120 24" fill="none" xmlns="http://www.w3.org/2000/svg">
<g clip-path="url(#clip0_2607_413)">
<path d="M22.2234 0H1.77187C0.792187 0 0 0.773438 0 1.72969V22.2656C0 23.2219 0.792187 24 1.77187 24H22.2234C23.2031 24 24 23.2219 24 22.2703V1.72969C24 0.773438 23.2031 0 22.2234 0ZM7.12031 20.4516H3.55781V8.99531H7.12031V20.4516ZM5.33906 7.43438C4.19531 7.43438 3.27188 6.51094 3.27188 5.37187C3.27188 4.23281 4.19531 3.30937 5.33906 3.30937C6.47813 3.30937 7.40156 4.23281 7.40156 5.37187C7.40156 6.50625 6.47813 7.43438 5.33906 7.43438ZM20.4516 20.4516H16.8937V14.8828C16.8937 13.5562 16.8703 11.8453 15.0422 11.8453C13.1906 11.8453 12.9094 13.2937 12.9094 14.7891V20.4516H9.35625V8.99531H12.7687V10.5609H12.8156C13.2891 9.66094 14.4516 8.70938 16.1813 8.70938C19.7859 8.70938 20.4516 11.0813 20.4516 14.1656V20.4516Z" fill="#98A2B3"/>
</g>
<g clip-path="url(#clip1_2607_413)">
<path d="M72 12C72 5.37258 66.6274 0 60 0C53.3726 0 48 5.37258 48 12C48 17.9895 52.3882 22.954 58.125 23.8542V15.4688H55.0781V12H58.125V9.35625C58.125 6.34875 59.9166 4.6875 62.6576 4.6875C63.9701 4.6875 65.3438 4.92188 65.3438 4.92188V7.875H63.8306C62.34 7.875 61.875 8.80008 61.875 9.75V12H65.2031L64.6711 15.4688H61.875V23.8542C67.6118 22.954 72 17.9895 72 12Z" fill="#98A2B3"/>
</g>
<path fill-rule="evenodd" clip-rule="evenodd" d="M108 0C101.375 0 96 5.37527 96 12C96 18.6248 101.375 24 108 24C114.612 24 120 18.6248 120 12C120 5.37527 114.612 0 108 0ZM115.926 5.53145C117.358 7.27549 118.217 9.50107 118.243 11.9089C117.905 11.8439 114.521 11.154 111.111 11.5835C111.033 11.4143 110.967 11.2321 110.889 11.0499C110.681 10.5554 110.447 10.0477 110.213 9.56618C113.987 8.0304 115.705 5.81779 115.926 5.53145ZM108 1.77007C110.603 1.77007 112.985 2.74621 114.794 4.34707C114.612 4.60738 113.063 6.67679 109.419 8.04338C107.74 4.95878 105.879 2.43384 105.592 2.04338C106.36 1.86117 107.167 1.77007 108 1.77007ZM103.64 2.73319C103.913 3.09761 105.735 5.63558 107.44 8.65508C102.651 9.9306 98.4208 9.90458 97.9653 9.90458C98.6291 6.72885 100.777 4.08676 103.64 2.73319ZM97.744 12.0131C97.744 11.9089 97.744 11.8048 97.744 11.7007C98.1866 11.7136 103.158 11.7787 108.273 10.243C108.573 10.8156 108.846 11.4013 109.106 11.9869C108.976 12.026 108.833 12.0651 108.703 12.1041C103.419 13.8091 100.607 18.4685 100.373 18.859C98.7462 17.0499 97.744 14.6421 97.744 12.0131ZM108 22.256C105.631 22.256 103.445 21.449 101.714 20.0954C101.896 19.718 103.978 15.7094 109.757 13.692C109.783 13.679 109.796 13.679 109.822 13.666C111.267 17.4013 111.853 20.5379 112.009 21.436C110.772 21.9696 109.419 22.256 108 22.256ZM113.714 20.4989C113.61 19.8742 113.063 16.8807 111.722 13.1974C114.937 12.6898 117.748 13.5228 118.1 13.6399C117.657 16.4902 116.017 18.9501 113.714 20.4989Z" fill="#98A2B3"/>
<defs>
<clipPath id="clip0_2607_413">
<rect width="24" height="24" fill="white"/>
</clipPath>
<clipPath id="clip1_2607_413">
<rect width="24" height="24" fill="white" transform="translate(48)"/>
</clipPath>
</defs>
</svg>
