<svg width="184" height="15" viewBox="0 0 184 15" fill="none" xmlns="http://www.w3.org/2000/svg">
<path d="M1.05682 3.27273H2.31818L5.28409 10.517H5.38636L8.35227 3.27273H9.61364V12H8.625V5.36932H8.53977L5.8125 12H4.85795L2.13068 5.36932H2.04545V12H1.05682V3.27273ZM13.5224 12.1534C13.1076 12.1534 12.7312 12.0753 12.3931 11.919C12.055 11.7599 11.7866 11.5312 11.5877 11.233C11.3888 10.9318 11.2894 10.5682 11.2894 10.142C11.2894 9.76705 11.3633 9.46307 11.511 9.23011C11.6587 8.99432 11.8562 8.80966 12.1033 8.67614C12.3505 8.54261 12.6232 8.44318 12.9215 8.37784C13.2227 8.30966 13.5252 8.25568 13.8292 8.21591C14.2269 8.16477 14.5494 8.12642 14.7965 8.10085C15.0465 8.07244 15.2283 8.02557 15.342 7.96023C15.4585 7.89489 15.5167 7.78125 15.5167 7.61932V7.58523C15.5167 7.16477 15.4016 6.83807 15.1715 6.60511C14.9442 6.37216 14.5991 6.25568 14.136 6.25568C13.6559 6.25568 13.2795 6.3608 13.0067 6.57102C12.734 6.78125 12.5423 7.00568 12.4315 7.24432L11.4769 6.90341C11.6474 6.50568 11.8746 6.19602 12.1587 5.97443C12.4457 5.75 12.7582 5.59375 13.0962 5.50568C13.4371 5.41477 13.7724 5.36932 14.1019 5.36932C14.3121 5.36932 14.5536 5.39489 14.8263 5.44602C15.1019 5.49432 15.3675 5.59517 15.6232 5.74858C15.8817 5.90199 16.0962 6.13352 16.2667 6.44318C16.4371 6.75284 16.5224 7.16761 16.5224 7.6875V12H15.5167V11.1136H15.4656C15.3974 11.2557 15.2837 11.4077 15.1246 11.5696C14.9656 11.7315 14.7539 11.8693 14.4897 11.983C14.2255 12.0966 13.9031 12.1534 13.5224 12.1534ZM13.6758 11.25C14.0735 11.25 14.4087 11.1719 14.6815 11.0156C14.957 10.8594 15.1644 10.6577 15.3036 10.4105C15.4457 10.1634 15.5167 9.90341 15.5167 9.63068V8.71023C15.4741 8.76136 15.3803 8.80824 15.2354 8.85085C15.0934 8.89062 14.9286 8.92614 14.7411 8.95739C14.5565 8.9858 14.3761 9.01136 14.1999 9.03409C14.0266 9.05398 13.886 9.07102 13.7781 9.08523C13.5167 9.11932 13.2724 9.17472 13.0451 9.25142C12.8207 9.32528 12.6388 9.4375 12.4996 9.58807C12.3633 9.7358 12.2951 9.9375 12.2951 10.1932C12.2951 10.5426 12.4244 10.8068 12.6829 10.9858C12.9442 11.1619 13.2752 11.25 13.6758 11.25ZM20.8295 12.1364C20.2841 12.1364 19.8026 11.9986 19.3849 11.723C18.9673 11.4446 18.6406 11.0526 18.4048 10.5469C18.169 10.0384 18.0511 9.4375 18.0511 8.74432C18.0511 8.05682 18.169 7.46023 18.4048 6.95455C18.6406 6.44886 18.9688 6.05824 19.3892 5.78267C19.8097 5.5071 20.2955 5.36932 20.8466 5.36932C21.2727 5.36932 21.6094 5.44034 21.8565 5.58239C22.1065 5.72159 22.2969 5.88068 22.4276 6.05966C22.5611 6.2358 22.6648 6.38068 22.7386 6.49432H22.8239V3.27273H23.8295V12H22.858V10.9943H22.7386C22.6648 11.1136 22.5597 11.2642 22.4233 11.446C22.2869 11.625 22.0923 11.7855 21.8395 11.9276C21.5866 12.0668 21.25 12.1364 20.8295 12.1364ZM20.9659 11.233C21.3693 11.233 21.7102 11.1278 21.9886 10.9176C22.267 10.7045 22.4787 10.4105 22.6236 10.0355C22.7685 9.65767 22.8409 9.22159 22.8409 8.72727C22.8409 8.23864 22.7699 7.81108 22.6278 7.4446C22.4858 7.07528 22.2756 6.78835 21.9972 6.58381C21.7188 6.37642 21.375 6.27273 20.9659 6.27273C20.5398 6.27273 20.1847 6.3821 19.9006 6.60085C19.6193 6.81676 19.4077 7.1108 19.2656 7.48295C19.1264 7.85227 19.0568 8.26705 19.0568 8.72727C19.0568 9.19318 19.1278 9.61648 19.2699 9.99716C19.4148 10.375 19.6278 10.6761 19.9091 10.9006C20.1932 11.1222 20.5455 11.233 20.9659 11.233ZM28.5554 12.1364C27.9247 12.1364 27.3807 11.9972 26.9233 11.7188C26.4688 11.4375 26.1179 11.0455 25.8707 10.5426C25.6264 10.0369 25.5043 9.44886 25.5043 8.77841C25.5043 8.10795 25.6264 7.51705 25.8707 7.00568C26.1179 6.49148 26.4616 6.09091 26.902 5.80398C27.3452 5.5142 27.8622 5.36932 28.4531 5.36932C28.794 5.36932 29.1307 5.42614 29.4631 5.53977C29.7955 5.65341 30.098 5.83807 30.3707 6.09375C30.6435 6.34659 30.8608 6.68182 31.0227 7.09943C31.1847 7.51705 31.2656 8.03125 31.2656 8.64205V9.06818H26.2202V8.19886H30.2429C30.2429 7.82955 30.169 7.5 30.0213 7.21023C29.8764 6.92045 29.669 6.69176 29.3991 6.52415C29.1321 6.35653 28.8168 6.27273 28.4531 6.27273C28.0526 6.27273 27.706 6.37216 27.4134 6.57102C27.1236 6.76705 26.9006 7.02273 26.7443 7.33807C26.5881 7.65341 26.5099 7.99148 26.5099 8.35227V8.93182C26.5099 9.42614 26.5952 9.84517 26.7656 10.1889C26.9389 10.5298 27.179 10.7898 27.4858 10.9688C27.7926 11.1449 28.1491 11.233 28.5554 11.233C28.8196 11.233 29.0582 11.196 29.2713 11.1222C29.4872 11.0455 29.6733 10.9318 29.8295 10.7812C29.9858 10.6278 30.1065 10.4375 30.1918 10.2102L31.1634 10.483C31.0611 10.8125 30.8892 11.1023 30.6477 11.3523C30.4063 11.5994 30.108 11.7926 29.7528 11.9318C29.3977 12.0682 28.9986 12.1364 28.5554 12.1364ZM37.6534 12L35.6591 5.45455H36.7159L38.1307 10.4659H38.1989L39.5966 5.45455H40.6705L42.0511 10.4489H42.1193L43.5341 5.45455H44.5909L42.5966 12H41.608L40.1761 6.97159H40.0739L38.642 12H37.6534ZM45.9205 12V5.45455H46.9261V12H45.9205ZM46.4318 4.36364C46.2358 4.36364 46.0668 4.29688 45.9247 4.16335C45.7855 4.02983 45.7159 3.86932 45.7159 3.68182C45.7159 3.49432 45.7855 3.33381 45.9247 3.20028C46.0668 3.06676 46.2358 3 46.4318 3C46.6278 3 46.7955 3.06676 46.9347 3.20028C47.0767 3.33381 47.1477 3.49432 47.1477 3.68182C47.1477 3.86932 47.0767 4.02983 46.9347 4.16335C46.7955 4.29688 46.6278 4.36364 46.4318 4.36364ZM51.6147 5.45455V6.30682H48.2227V5.45455H51.6147ZM49.2113 3.88636H50.217V10.125C50.217 10.4091 50.2582 10.6222 50.3406 10.7642C50.4258 10.9034 50.5337 10.9972 50.6644 11.0455C50.7979 11.0909 50.9386 11.1136 51.0863 11.1136C51.1971 11.1136 51.288 11.108 51.359 11.0966C51.43 11.0824 51.4869 11.071 51.5295 11.0625L51.734 11.9659C51.6658 11.9915 51.5707 12.017 51.4485 12.0426C51.3263 12.071 51.1715 12.0852 50.984 12.0852C50.6999 12.0852 50.4215 12.0241 50.1488 11.902C49.8789 11.7798 49.6545 11.5938 49.4755 11.3438C49.2994 11.0938 49.2113 10.7784 49.2113 10.3977V3.88636ZM54.2738 8.0625V12H53.2681V3.27273H54.2738V6.47727H54.359C54.5124 6.1392 54.7425 5.87074 55.0494 5.67188C55.359 5.47017 55.771 5.36932 56.2852 5.36932C56.7312 5.36932 57.1218 5.45881 57.457 5.63778C57.7923 5.81392 58.0522 6.08523 58.2369 6.4517C58.4244 6.81534 58.5181 7.27841 58.5181 7.84091V12H57.5124V7.90909C57.5124 7.3892 57.3775 6.98722 57.1076 6.70312C56.8406 6.41619 56.4698 6.27273 55.9954 6.27273C55.6658 6.27273 55.3704 6.34233 55.109 6.48153C54.8505 6.62074 54.646 6.82386 54.4954 7.09091C54.3477 7.35795 54.2738 7.68182 54.2738 8.0625ZM65.6591 12.1534C65.2443 12.1534 64.8679 12.0753 64.5298 11.919C64.1918 11.7599 63.9233 11.5312 63.7244 11.233C63.5256 10.9318 63.4261 10.5682 63.4261 10.142C63.4261 9.76705 63.5 9.46307 63.6477 9.23011C63.7955 8.99432 63.9929 8.80966 64.2401 8.67614C64.4872 8.54261 64.7599 8.44318 65.0582 8.37784C65.3594 8.30966 65.6619 8.25568 65.9659 8.21591C66.3636 8.16477 66.6861 8.12642 66.9332 8.10085C67.1832 8.07244 67.3651 8.02557 67.4787 7.96023C67.5952 7.89489 67.6534 7.78125 67.6534 7.61932V7.58523C67.6534 7.16477 67.5384 6.83807 67.3082 6.60511C67.081 6.37216 66.7358 6.25568 66.2727 6.25568C65.7926 6.25568 65.4162 6.3608 65.1435 6.57102C64.8707 6.78125 64.679 7.00568 64.5682 7.24432L63.6136 6.90341C63.7841 6.50568 64.0114 6.19602 64.2955 5.97443C64.5824 5.75 64.8949 5.59375 65.233 5.50568C65.5739 5.41477 65.9091 5.36932 66.2386 5.36932C66.4489 5.36932 66.6903 5.39489 66.9631 5.44602C67.2386 5.49432 67.5043 5.59517 67.7599 5.74858C68.0185 5.90199 68.233 6.13352 68.4034 6.44318C68.5739 6.75284 68.6591 7.16761 68.6591 7.6875V12H67.6534V11.1136H67.6023C67.5341 11.2557 67.4205 11.4077 67.2614 11.5696C67.1023 11.7315 66.8906 11.8693 66.6264 11.983C66.3622 12.0966 66.0398 12.1534 65.6591 12.1534ZM65.8125 11.25C66.2102 11.25 66.5455 11.1719 66.8182 11.0156C67.0938 10.8594 67.3011 10.6577 67.4403 10.4105C67.5824 10.1634 67.6534 9.90341 67.6534 9.63068V8.71023C67.6108 8.76136 67.517 8.80824 67.3722 8.85085C67.2301 8.89062 67.0653 8.92614 66.8778 8.95739C66.6932 8.9858 66.5128 9.01136 66.3366 9.03409C66.1634 9.05398 66.0227 9.07102 65.9148 9.08523C65.6534 9.11932 65.4091 9.17472 65.1818 9.25142C64.9574 9.32528 64.7756 9.4375 64.6364 9.58807C64.5 9.7358 64.4318 9.9375 64.4318 10.1932C64.4318 10.5426 64.5611 10.8068 64.8196 10.9858C65.081 11.1619 65.4119 11.25 65.8125 11.25ZM90.881 12V3.27273H91.8867V6.49432H91.9719C92.0458 6.38068 92.1481 6.2358 92.2788 6.05966C92.4123 5.88068 92.6026 5.72159 92.8498 5.58239C93.0998 5.44034 93.4379 5.36932 93.864 5.36932C94.4151 5.36932 94.9009 5.5071 95.3214 5.78267C95.7418 6.05824 96.07 6.44886 96.3058 6.95455C96.5415 7.46023 96.6594 8.05682 96.6594 8.74432C96.6594 9.4375 96.5415 10.0384 96.3058 10.5469C96.07 11.0526 95.7433 11.4446 95.3256 11.723C94.908 11.9986 94.4265 12.1364 93.881 12.1364C93.4606 12.1364 93.1239 12.0668 92.8711 11.9276C92.6183 11.7855 92.4237 11.625 92.2873 11.446C92.1509 11.2642 92.0458 11.1136 91.9719 10.9943H91.8526V12H90.881ZM91.8697 8.72727C91.8697 9.22159 91.9421 9.65767 92.087 10.0355C92.2319 10.4105 92.4435 10.7045 92.7219 10.9176C93.0004 11.1278 93.3413 11.233 93.7447 11.233C94.1651 11.233 94.516 11.1222 94.7972 10.9006C95.0813 10.6761 95.2944 10.375 95.4364 9.99716C95.5813 9.61648 95.6538 9.19318 95.6538 8.72727C95.6538 8.26705 95.5827 7.85227 95.4407 7.48295C95.3015 7.1108 95.0898 6.81676 94.8058 6.60085C94.5245 6.3821 94.1708 6.27273 93.7447 6.27273C93.3356 6.27273 92.9918 6.37642 92.7134 6.58381C92.435 6.78835 92.2248 7.07528 92.0827 7.4446C91.9407 7.81108 91.8697 8.23864 91.8697 8.72727ZM98.6112 14.4545C98.4407 14.4545 98.2887 14.4403 98.1552 14.4119C98.0217 14.3864 97.9293 14.3608 97.8782 14.3352L98.1339 13.4489C98.3782 13.5114 98.5941 13.5341 98.7816 13.517C98.9691 13.5 99.1353 13.4162 99.2802 13.2656C99.4279 13.1179 99.5629 12.8778 99.685 12.5455L99.8725 12.0341L97.4521 5.45455H98.543L100.35 10.6705H100.418L102.225 5.45455H103.316L100.537 12.9545C100.412 13.2926 100.257 13.5724 100.073 13.794C99.8881 14.0185 99.6737 14.1847 99.4293 14.2926C99.1879 14.4006 98.9151 14.4545 98.6112 14.4545ZM107.962 3.06H109.594V6.96H113.398V3.06H115.042V12H113.398V8.4H109.594V12H107.962V3.06ZM118.61 12.144C117.922 12.144 117.374 11.976 116.966 11.64C116.566 11.304 116.366 10.848 116.366 10.272C116.366 9.72 116.554 9.264 116.93 8.904C117.306 8.544 117.87 8.304 118.622 8.184L120.566 7.872V7.656C120.566 7.368 120.454 7.132 120.23 6.948C120.014 6.764 119.726 6.672 119.366 6.672C119.03 6.672 118.73 6.764 118.466 6.948C118.21 7.124 118.022 7.36 117.902 7.656L116.618 7.032C116.81 6.52 117.162 6.108 117.674 5.796C118.186 5.484 118.77 5.328 119.426 5.328C119.954 5.328 120.422 5.428 120.83 5.628C121.246 5.82 121.566 6.096 121.79 6.456C122.022 6.808 122.138 7.208 122.138 7.656V12H120.65V11.304C120.138 11.864 119.458 12.144 118.61 12.144ZM117.998 10.212C117.998 10.436 118.082 10.616 118.25 10.752C118.418 10.88 118.634 10.944 118.898 10.944C119.386 10.944 119.786 10.792 120.098 10.488C120.41 10.176 120.566 9.792 120.566 9.336V9.072L118.922 9.348C118.61 9.412 118.378 9.516 118.226 9.66C118.074 9.796 117.998 9.98 117.998 10.212ZM123.591 5.472H125.067V6.24C125.307 5.952 125.603 5.728 125.955 5.568C126.315 5.408 126.719 5.328 127.167 5.328C127.775 5.328 128.331 5.48 128.835 5.784C129.339 6.08 129.735 6.488 130.023 7.008C130.311 7.528 130.455 8.104 130.455 8.736C130.455 9.368 130.311 9.944 130.023 10.464C129.735 10.984 129.339 11.396 128.835 11.7C128.339 11.996 127.779 12.144 127.155 12.144C126.755 12.144 126.383 12.08 126.039 11.952C125.695 11.816 125.403 11.624 125.163 11.376V14.4H123.591V5.472ZM125.163 8.736C125.163 9.112 125.239 9.452 125.391 9.756C125.551 10.052 125.767 10.284 126.039 10.452C126.319 10.62 126.631 10.704 126.975 10.704C127.511 10.704 127.951 10.52 128.295 10.152C128.647 9.776 128.823 9.304 128.823 8.736C128.823 8.368 128.743 8.036 128.583 7.74C128.423 7.436 128.203 7.2 127.923 7.032C127.643 6.856 127.327 6.768 126.975 6.768C126.631 6.768 126.319 6.852 126.039 7.02C125.767 7.188 125.551 7.424 125.391 7.728C125.239 8.024 125.163 8.36 125.163 8.736ZM131.654 5.472H133.13V6.24C133.37 5.952 133.666 5.728 134.018 5.568C134.378 5.408 134.782 5.328 135.23 5.328C135.838 5.328 136.394 5.48 136.898 5.784C137.402 6.08 137.798 6.488 138.086 7.008C138.374 7.528 138.518 8.104 138.518 8.736C138.518 9.368 138.374 9.944 138.086 10.464C137.798 10.984 137.402 11.396 136.898 11.7C136.402 11.996 135.842 12.144 135.218 12.144C134.818 12.144 134.446 12.08 134.102 11.952C133.758 11.816 133.466 11.624 133.226 11.376V14.4H131.654V5.472ZM133.226 8.736C133.226 9.112 133.302 9.452 133.454 9.756C133.614 10.052 133.83 10.284 134.102 10.452C134.382 10.62 134.694 10.704 135.038 10.704C135.574 10.704 136.014 10.52 136.358 10.152C136.71 9.776 136.886 9.304 136.886 8.736C136.886 8.368 136.806 8.036 136.646 7.74C136.486 7.436 136.266 7.2 135.986 7.032C135.706 6.856 135.39 6.768 135.038 6.768C134.694 6.768 134.382 6.852 134.102 7.02C133.83 7.188 133.614 7.424 133.454 7.728C133.302 8.024 133.226 8.36 133.226 8.736ZM141.543 11.904L138.999 5.472H140.691L142.383 9.972L144.063 5.472H145.767L142.239 14.4H140.547L141.543 11.904ZM146.762 3.06H149.678C150.614 3.06 151.434 3.248 152.138 3.624C152.842 4 153.386 4.528 153.77 5.208C154.154 5.88 154.346 6.652 154.346 7.524C154.346 8.388 154.154 9.16 153.77 9.84C153.386 10.52 152.838 11.052 152.126 11.436C151.422 11.812 150.606 12 149.678 12H146.762V3.06ZM149.714 10.56C150.314 10.56 150.838 10.436 151.286 10.188C151.742 9.94 152.09 9.588 152.33 9.132C152.578 8.668 152.702 8.132 152.702 7.524C152.702 6.916 152.578 6.384 152.33 5.928C152.09 5.472 151.742 5.12 151.286 4.872C150.838 4.624 150.314 4.5 149.714 4.5H148.394V10.56H149.714ZM155.513 5.472H157.085V12H155.513V5.472ZM155.393 3.672C155.393 3.384 155.473 3.16 155.633 3C155.793 2.84 156.013 2.76 156.293 2.76C156.581 2.76 156.805 2.84 156.965 3C157.125 3.16 157.205 3.384 157.205 3.672C157.205 3.952 157.125 4.172 156.965 4.332C156.813 4.492 156.589 4.572 156.293 4.572C156.013 4.572 155.793 4.492 155.633 4.332C155.473 4.172 155.393 3.952 155.393 3.672ZM161.705 14.64C160.969 14.64 160.321 14.464 159.761 14.112C159.209 13.768 158.829 13.308 158.621 12.732L160.085 12.18C160.181 12.492 160.373 12.74 160.661 12.924C160.949 13.108 161.297 13.2 161.705 13.2C162.185 13.2 162.573 13.064 162.869 12.792C163.173 12.52 163.325 12.148 163.325 11.676V10.968C162.861 11.48 162.233 11.736 161.441 11.736C160.841 11.736 160.297 11.596 159.809 11.316C159.329 11.036 158.953 10.652 158.681 10.164C158.409 9.676 158.273 9.128 158.273 8.52C158.273 7.912 158.405 7.368 158.669 6.888C158.941 6.4 159.317 6.02 159.797 5.748C160.277 5.468 160.813 5.328 161.405 5.328C162.245 5.328 162.913 5.624 163.409 6.216V5.472H164.897V11.676C164.897 12.244 164.761 12.752 164.489 13.2C164.217 13.656 163.837 14.008 163.349 14.256C162.869 14.512 162.321 14.64 161.705 14.64ZM159.905 8.532C159.905 9.036 160.065 9.456 160.385 9.792C160.713 10.12 161.129 10.284 161.633 10.284C162.129 10.284 162.533 10.12 162.845 9.792C163.165 9.464 163.325 9.044 163.325 8.532C163.325 8.02 163.165 7.6 162.845 7.272C162.525 6.936 162.121 6.768 161.633 6.768C161.137 6.768 160.725 6.936 160.397 7.272C160.069 7.608 159.905 8.028 159.905 8.532ZM166.365 5.472H167.937V12H166.365V5.472ZM166.245 3.672C166.245 3.384 166.325 3.16 166.485 3C166.645 2.84 166.865 2.76 167.145 2.76C167.433 2.76 167.657 2.84 167.817 3C167.977 3.16 168.057 3.384 168.057 3.672C168.057 3.952 167.977 4.172 167.817 4.332C167.665 4.492 167.441 4.572 167.145 4.572C166.865 4.572 166.645 4.492 166.485 4.332C166.325 4.172 166.245 3.952 166.245 3.672ZM172.364 12.072C171.628 12.072 171.056 11.872 170.648 11.472C170.248 11.064 170.048 10.492 170.048 9.756V6.876H168.92V5.472H169.04C169.36 5.472 169.608 5.388 169.784 5.22C169.96 5.052 170.048 4.808 170.048 4.488V3.984H171.62V5.472H173.12V6.876H171.62V9.672C171.62 10.352 171.988 10.692 172.724 10.692C172.852 10.692 172.992 10.68 173.144 10.656V12.012C172.888 12.052 172.628 12.072 172.364 12.072ZM176.29 12.144C175.602 12.144 175.054 11.976 174.646 11.64C174.246 11.304 174.046 10.848 174.046 10.272C174.046 9.72 174.234 9.264 174.61 8.904C174.986 8.544 175.55 8.304 176.302 8.184L178.246 7.872V7.656C178.246 7.368 178.134 7.132 177.91 6.948C177.694 6.764 177.406 6.672 177.046 6.672C176.71 6.672 176.41 6.764 176.146 6.948C175.89 7.124 175.702 7.36 175.582 7.656L174.298 7.032C174.49 6.52 174.842 6.108 175.354 5.796C175.866 5.484 176.45 5.328 177.106 5.328C177.634 5.328 178.102 5.428 178.51 5.628C178.926 5.82 179.246 6.096 179.47 6.456C179.702 6.808 179.818 7.208 179.818 7.656V12H178.33V11.304C177.818 11.864 177.138 12.144 176.29 12.144ZM175.678 10.212C175.678 10.436 175.762 10.616 175.93 10.752C176.098 10.88 176.314 10.944 176.578 10.944C177.066 10.944 177.466 10.792 177.778 10.488C178.09 10.176 178.246 9.792 178.246 9.336V9.072L176.602 9.348C176.29 9.412 176.058 9.516 175.906 9.66C175.754 9.796 175.678 9.98 175.678 10.212ZM181.271 2.916H182.843V12H181.271V2.916Z" fill="#041434"/>
<a href="https://www.happydigital.nl/">
<rect fill="black" fill-opacity="0" y="-0.56" width="183.563" height="15.12"/>
</a>
<path d="M81.8611 2C82.6513 2 83.3818 2.42022 83.7791 3.10325L85.6504 6.32053C86.0515 7.01016 86.0515 7.86203 85.6504 8.55165L83.7791 11.7689C83.3818 12.452 82.6513 12.8722 81.8611 12.8722H78.0901C77.2999 12.8722 76.5694 12.452 76.1721 11.7689L74.3008 8.55165C73.8997 7.86203 73.8997 7.01016 74.3008 6.32053L76.1721 3.10325C76.5694 2.42022 77.2999 2 78.0901 2L81.8611 2Z" fill="#1386F5"/>
<path fill-rule="evenodd" clip-rule="evenodd" d="M82.0833 9.10045C82.2812 9.24505 82.3263 9.52579 82.1551 9.70116C80.9661 10.919 78.9848 10.919 77.7957 9.70116C77.6245 9.52579 77.6697 9.24505 77.8676 9.10045C78.0654 8.95585 78.3405 9.0037 78.5218 9.16855C79.341 9.9132 80.6099 9.9132 81.429 9.16855C81.6104 9.0037 81.8854 8.95585 82.0833 9.10045Z" fill="white"/>
</svg>
